<svg width="22" height="22" viewBox="0 0 22 22" fill="none" xmlns="http://www.w3.org/2000/svg">
<path d="M19.9884 9.20471H19.25V9.16667H11V12.8333H16.1806C15.4248 14.9678 13.3939 16.5 11 16.5C7.96267 16.5 5.50004 14.0374 5.50004 11C5.50004 7.96263 7.96267 5.5 11 5.5C12.4021 5.5 13.6776 6.02892 14.6488 6.89288L17.2416 4.30009C15.6045 2.77429 13.4145 1.83334 11 1.83334C5.93775 1.83334 1.83337 5.93771 1.83337 11C1.83337 16.0623 5.93775 20.1667 11 20.1667C16.0623 20.1667 20.1667 16.0623 20.1667 11C20.1667 10.3854 20.1035 9.78542 19.9884 9.20471Z" fill="#FFC107"/>
<path d="M2.89026 6.73338L5.90197 8.94209C6.71688 6.9245 8.69047 5.5 11 5.5C12.4021 5.5 13.6776 6.02892 14.6488 6.89288L17.2416 4.30009C15.6044 2.77429 13.4145 1.83334 11 1.83334C7.47909 1.83334 4.42568 3.82113 2.89026 6.73338Z" fill="#FF3D00"/>
<path d="M11 20.1667C13.3677 20.1667 15.5191 19.2605 17.1458 17.787L14.3087 15.3863C13.3574 16.1097 12.1951 16.5009 11 16.5C8.61573 16.5 6.59127 14.9797 5.82861 12.8581L2.83936 15.1612C4.35644 18.1298 7.43736 20.1667 11 20.1667Z" fill="#4CAF50"/>
<path d="M19.9884 9.20471H19.25V9.16666H11V12.8333H16.1805C15.819 13.8492 15.1678 14.7369 14.3073 15.3867L14.3087 15.3858L17.1458 17.7865C16.945 17.969 20.1667 15.5833 20.1667 11C20.1667 10.3854 20.1034 9.78541 19.9884 9.20471Z" fill="#1976D2"/>
</svg>
