<svg width="87" height="95" viewBox="0 0 87 95" fill="none" xmlns="http://www.w3.org/2000/svg">
<path d="M13.2232 0.785767C9.86773 0.785767 6.6497 2.11872 4.27703 4.49139C1.90436 6.86406 0.571411 10.0821 0.571411 13.4376V81.5625C0.571411 84.918 1.90436 88.136 4.27703 90.5087C6.6497 92.8814 9.86773 94.2143 13.2232 94.2143H50.4701L42.0732 85.8174C41.2598 85.0041 40.6146 84.0385 40.1745 82.9758C39.7343 81.9131 39.5077 80.7742 39.5077 79.6239C39.5077 78.4737 39.7343 77.3347 40.1744 76.272C40.6146 75.2093 41.2598 74.2437 42.0732 73.4304C42.8865 72.617 43.8521 71.9718 44.9148 71.5317C45.9775 71.0915 47.1165 70.8649 48.2667 70.8649C49.4169 70.8649 50.5559 71.0915 51.6186 71.5317C52.6813 71.9718 53.6469 72.617 54.4602 73.4304L59.9375 78.9076L77.1011 61.744C77.5137 61.3314 77.9575 60.9654 78.4286 60.654V13.4376C78.4286 10.0821 77.0956 6.86406 74.7229 4.49139C72.3503 2.11872 69.1322 0.785767 65.7768 0.785767H13.2232ZM25.875 27.0625C25.875 28.3531 25.3623 29.5908 24.4497 30.5034C23.5372 31.4159 22.2995 31.9286 21.0089 31.9286C19.7183 31.9286 18.4806 31.4159 17.5681 30.5034C16.6555 29.5908 16.1428 28.3531 16.1428 27.0625C16.1428 25.772 16.6555 24.5343 17.5681 23.6217C18.4806 22.7092 19.7183 22.1965 21.0089 22.1965C22.2995 22.1965 23.5372 22.7092 24.4497 23.6217C25.3623 24.5343 25.875 25.772 25.875 27.0625ZM21.0089 52.3661C19.7183 52.3661 18.4806 51.8534 17.5681 50.9409C16.6555 50.0283 16.1428 48.7906 16.1428 47.5C16.1428 46.2095 16.6555 44.9718 17.5681 44.0592C18.4806 43.1467 19.7183 42.634 21.0089 42.634C22.2995 42.634 23.5372 43.1467 24.4497 44.0592C25.3623 44.9718 25.875 46.2095 25.875 47.5C25.875 48.7906 25.3623 50.0283 24.4497 50.9409C23.5372 51.8534 22.2995 52.3661 21.0089 52.3661ZM21.0089 72.8036C19.7183 72.8036 18.4806 72.2909 17.5681 71.3784C16.6555 70.4658 16.1428 69.2281 16.1428 67.9375C16.1428 66.647 16.6555 65.4093 17.5681 64.4967C18.4806 63.5841 19.7183 63.0715 21.0089 63.0715C22.2995 63.0715 23.5372 63.5841 24.4497 64.4967C25.3623 65.4093 25.875 66.647 25.875 67.9375C25.875 69.2281 25.3623 70.4658 24.4497 71.3784C23.5372 72.2909 22.2995 72.8036 21.0089 72.8036ZM34.6339 24.1429H59.9375C60.7118 24.1429 61.4544 24.4505 62.002 24.9981C62.5495 25.5456 62.8571 26.2882 62.8571 27.0625C62.8571 27.8369 62.5495 28.5795 62.002 29.127C61.4544 29.6746 60.7118 29.9822 59.9375 29.9822H34.6339C33.8596 29.9822 33.117 29.6746 32.5694 29.127C32.0219 28.5795 31.7143 27.8369 31.7143 27.0625C31.7143 26.2882 32.0219 25.5456 32.5694 24.9981C33.117 24.4505 33.8596 24.1429 34.6339 24.1429ZM31.7143 47.5C31.7143 46.7257 32.0219 45.9831 32.5694 45.4356C33.117 44.888 33.8596 44.5804 34.6339 44.5804H59.9375C60.7118 44.5804 61.4544 44.888 62.002 45.4356C62.5495 45.9831 62.8571 46.7257 62.8571 47.5C62.8571 48.2744 62.5495 49.017 62.002 49.5645C61.4544 50.1121 60.7118 50.4197 59.9375 50.4197H34.6339C33.8596 50.4197 33.117 50.1121 32.5694 49.5645C32.0219 49.017 31.7143 48.2744 31.7143 47.5ZM34.6339 65.0179H59.9375C60.7118 65.0179 61.4544 65.3255 62.002 65.873C62.5495 66.4206 62.8571 67.1632 62.8571 67.9375C62.8571 68.7119 62.5495 69.4545 62.002 70.002C61.4544 70.5496 60.7118 70.8572 59.9375 70.8572H34.6339C33.8596 70.8572 33.117 70.5496 32.5694 70.002C32.0219 69.4545 31.7143 68.7119 31.7143 67.9375C31.7143 67.1632 32.0219 66.4206 32.5694 65.873C33.117 65.3255 33.8596 65.0179 34.6339 65.0179ZM62.0007 93.3579L85.3578 70.0008C85.6447 69.7335 85.8748 69.4111 86.0343 69.053C86.1939 68.6949 86.2797 68.3082 86.2866 67.9162C86.2936 67.5242 86.2214 67.1348 86.0746 66.7713C85.9278 66.4077 85.7092 66.0775 85.432 65.8002C85.1547 65.523 84.8245 65.3044 84.4609 65.1576C84.0974 65.0107 83.708 64.9386 83.3159 64.9455C82.9239 64.9524 82.5373 65.0383 82.1792 65.1978C81.821 65.3574 81.4987 65.5875 81.2314 65.8743L59.9375 87.1683L50.3299 77.5607C49.7764 77.045 49.0444 76.7642 48.288 76.7775C47.5316 76.7909 46.81 77.0973 46.275 77.6322C45.7401 78.1672 45.4337 78.8888 45.4203 79.6452C45.407 80.4016 45.6878 81.1337 46.2035 81.6871L57.8743 93.3579C58.4217 93.9047 59.1638 94.2118 59.9375 94.2118C60.7112 94.2118 61.4533 93.9047 62.0007 93.3579Z" fill="#FF4F5A"/>
</svg>
